<svg width="49" height="47" viewBox="0 0 49 47" fill="none" xmlns="http://www.w3.org/2000/svg">
<path d="M4.82001 37.64C5.29001 37.64 5.74001 37.52 6.20001 37.45C5.98001 37.31 5.77001 37.15 5.55001 37L4.82001 37.64Z" fill="#D65649"/>
<path d="M34.74 27.39C37.0729 23.3371 37.7466 18.5386 36.62 14C36.094 11.7059 35.1155 9.53983 33.7418 7.62868C32.3681 5.71752 30.6268 4.09971 28.62 2.87C25.0197 0.605468 20.7433 -0.335026 16.5251 0.209986C12.3069 0.754998 8.41005 2.75152 5.50355 5.85676C2.59704 8.962 0.862247 12.9822 0.59701 17.2272C0.331773 21.4722 1.55264 25.6771 4.05 29.12C9.3 36.31 20.05 39.27 28.43 33.92C29.17 34.5 29.81 34.99 30.43 35.5C30.78 35.78 31.1 36.09 31.43 36.39L41.72 45.49C42.0751 45.8385 42.499 46.1092 42.9645 46.2847C43.4301 46.4603 43.9272 46.5369 44.424 46.5096C44.9208 46.4823 45.4065 46.3517 45.85 46.1263C46.2935 45.9008 46.6852 45.5853 47 45.2C47.27 44.91 47.52 44.6 47.81 44.33C48.1986 43.951 48.5016 43.4932 48.6984 42.9873C48.8952 42.4814 48.9813 41.9392 48.951 41.3972C48.9207 40.8552 48.7746 40.326 48.5226 39.8453C48.2706 39.3645 47.9185 38.9433 47.49 38.61C43.2 34.94 39 31.16 34.74 27.39ZM7.56 18.24C7.56594 16.0075 8.23363 13.8268 9.47868 11.9737C10.7237 10.1206 12.4902 8.67824 14.5549 7.82892C16.6195 6.9796 18.8897 6.76147 21.0783 7.2021C23.2669 7.64273 25.2757 8.72235 26.8508 10.3045C28.426 11.8866 29.4967 13.9002 29.9276 16.0907C30.3586 18.2813 30.1304 20.5504 29.2719 22.6113C28.4135 24.6721 26.9633 26.4322 25.1047 27.6691C23.2461 28.9059 21.0625 29.5639 18.83 29.56C15.8356 29.5494 12.9676 28.3518 10.8549 26.2297C8.74226 24.1077 7.55734 21.2344 7.56 18.24V18.24Z" fill="#D65649"/>
</svg>
