<?xml version="1.0" encoding="UTF-8" standalone="no"?>
<svg
   xmlns:dc="http://purl.org/dc/elements/1.1/"
   xmlns:cc="http://creativecommons.org/ns#"
   xmlns:rdf="http://www.w3.org/1999/02/22-rdf-syntax-ns#"
   xmlns:svg="http://www.w3.org/2000/svg"
   xmlns="http://www.w3.org/2000/svg"
   xmlns:sodipodi="http://sodipodi.sourceforge.net/DTD/sodipodi-0.dtd"
   xmlns:inkscape="http://www.inkscape.org/namespaces/inkscape"
   width="62"
   height="62"
   viewBox="0 0 62 62"
   fill="none"
   version="1.1"
   id="svg8"
   sodipodi:docname="icon.svg"
   inkscape:version="0.92.2 (5c3e80d, 2017-08-06)">
  <metadata
     id="metadata14">
    <rdf:RDF>
      <cc:Work
         rdf:about="">
        <dc:format>image/svg+xml</dc:format>
        <dc:type
           rdf:resource="http://purl.org/dc/dcmitype/StillImage" />
        <dc:title></dc:title>
      </cc:Work>
    </rdf:RDF>
  </metadata>
  <defs
     id="defs12" />
  <sodipodi:namedview
     pagecolor="#ffffff"
     bordercolor="#666666"
     borderopacity="1"
     objecttolerance="10"
     gridtolerance="10"
     guidetolerance="10"
     inkscape:pageopacity="0"
     inkscape:pageshadow="2"
     inkscape:window-width="1856"
     inkscape:window-height="1177"
     id="namedview10"
     showgrid="false"
     inkscape:zoom="15.225806"
     inkscape:cx="33.489089"
     inkscape:cy="33.094836"
     inkscape:window-x="1912"
     inkscape:window-y="-8"
     inkscape:window-maximized="1"
     inkscape:current-layer="svg8" />
  <path
     fill-rule="evenodd"
     clip-rule="evenodd"
     d="M16.5007 10.6375C17.0731 10.246 17.7786 10.1005 18.4592 10.2337C21.4785 10.8243 25.6977 12.4401 28.0003 14.0951C28.0146 14.1053 28.0287 14.1157 28.0427 14.1262C28.1201 14.1842 28.2023 14.2451 28.2888 14.3091C29.36 15.1025 31.0841 16.3793 32.4413 18.7698C33.9005 21.3398 34.8182 24.9443 34.7227 30.2954L29.5459 30.203C29.6305 25.4654 28.8066 22.8545 27.9389 21.3261C27.1342 19.9088 26.1921 19.2058 25.1529 18.4302C25.0887 18.3824 25.0242 18.3342 24.9593 18.2856C23.9155 17.5415 22.0105 16.6738 20.1156 16.0373C19.6394 20.6935 20.0338 25.4291 21.4368 29.0708C22.2714 31.237 23.412 32.8889 24.8066 33.9664C26.1609 35.0128 27.904 35.6367 30.2272 35.5298C33.2473 35.3909 35.2233 34.725 36.5538 33.8178C37.8511 32.9332 38.7583 31.6676 39.3767 29.8834C40.0125 28.0489 40.3197 25.7267 40.3964 22.8682C40.4526 20.7771 40.3846 18.489 40.2651 16.0011C38.3779 16.3313 37.0833 16.7599 36.2483 17.1153C35.6568 17.3671 35.2913 17.584 35.1046 17.7076C35.0222 17.7621 34.9737 17.7991 34.9553 17.8136C34.8807 17.8814 34.8022 17.9447 34.7201 18.0033L34.2998 18.3036L31.2898 14.0908L31.6053 13.8654C31.6344 13.8409 31.666 13.8147 31.7003 13.7871C31.8384 13.6758 32.0189 13.541 32.2471 13.39C32.7041 13.0875 33.3482 12.7226 34.2205 12.3514C35.9656 11.6086 38.606 10.8474 42.4689 10.4963C43.1682 10.4328 43.8634 10.656 44.3949 11.1149C44.9265 11.5737 45.2488 12.2288 45.288 12.9299C45.4876 16.498 45.6552 19.9148 45.5721 23.0072C45.4894 26.0896 45.1562 29.0185 44.2687 31.579C43.3638 34.1899 41.8646 36.4633 39.4705 38.0956C37.1096 39.7054 34.1089 40.5343 30.4652 40.7019C30.4652 40.7019 30.4652 40.7019 30.4652 40.7019C26.9884 40.8619 24.0225 39.9036 21.641 38.0636C19.2998 36.2547 17.6778 33.7159 16.6053 30.9321C14.4779 25.4101 14.3149 18.4315 15.4142 12.3163C15.5369 11.6337 15.9283 11.029 16.5007 10.6375Z"
     fill="#D65649"
     id="path2" />
  <path
     fill-rule="evenodd"
     clip-rule="evenodd"
     d="M56.2621 6.51781H5.36163C4.91358 6.51781 4.55037 6.88103 4.55037 7.32908V43.0778C4.55037 43.5259 4.91358 43.8891 5.36163 43.8891H56.2621C56.7101 43.8891 57.0733 43.5259 57.0733 43.0778V7.32908C57.0733 6.88103 56.7101 6.51781 56.2621 6.51781ZM5.36163 2.19108C2.52399 2.19108 0.223633 4.49144 0.223633 7.32908V43.0778C0.223633 45.9155 2.524 48.2158 5.36163 48.2158H56.2621C59.0997 48.2158 61.4001 45.9155 61.4001 43.0778V7.32908C61.4001 4.49144 59.0997 2.19108 56.2621 2.19108H5.36163Z"
     fill="#D65649"
     id="path4" />
  <path
     fill-rule="evenodd"
     clip-rule="evenodd"
     d="M24.5156 45.1327C24.9486 44.6852 25.5447 44.4325 26.1675 44.4325H35.2902C36.5596 44.4325 37.5887 45.4616 37.5887 46.7311V53.359H43.9224C45.1918 53.359 46.2209 54.3881 46.2209 55.6576C46.2209 56.927 45.1918 57.9561 43.9224 57.9561H17.3391C16.0696 57.9561 15.0405 56.927 15.0405 55.6576C15.0405 54.3881 16.0696 53.359 17.3391 53.359H24.0862L23.8702 46.8068C23.8496 46.1844 24.0825 45.5803 24.5156 45.1327ZM28.6858 53.359H32.9916V49.0297H28.5431L28.6858 53.359Z"
     fill="#D65649"
     id="path6" />
</svg>
