<svg width="761" height="138" viewBox="0 0 761 138" fill="none" xmlns="http://www.w3.org/2000/svg">
<path d="M157.34 73.774V37.1082H170.184C174.632 37.1082 178.007 37.9644 180.307 39.6768C182.607 41.3724 183.757 43.8655 183.757 47.156C183.757 48.9524 183.295 50.5389 182.372 51.9156C181.449 53.2754 180.164 54.2743 178.519 54.9123C180.399 55.3824 181.877 56.3309 182.951 57.7579C184.042 59.1849 184.588 60.9309 184.588 62.9959C184.588 66.5215 183.463 69.1908 181.214 71.004C178.964 72.8171 175.757 73.7405 171.594 73.774H157.34ZM164.895 57.8083V67.705H171.367C173.147 67.705 174.532 67.2853 175.522 66.4459C176.53 65.5897 177.033 64.4145 177.033 62.9203C177.033 59.5627 175.296 57.8586 171.82 57.8083H164.895ZM164.895 52.4696H170.486C174.297 52.4024 176.202 50.8831 176.202 47.9115C176.202 46.2495 175.715 45.0575 174.742 44.3356C173.785 43.5969 172.265 43.2276 170.184 43.2276H164.895V52.4696ZM197.481 73.774H190.179V35.0936H197.481V73.774ZM202.367 59.8984C202.367 57.1955 202.887 54.7864 203.928 52.671C204.969 50.5557 206.463 48.9188 208.411 47.7604C210.375 46.602 212.65 46.0228 215.235 46.0228C218.912 46.0228 221.909 47.1476 224.225 49.3973C226.559 51.6469 227.86 54.7024 228.129 58.5638L228.179 60.4273C228.179 64.6076 227.012 67.9653 224.679 70.5003C222.345 73.0186 219.214 74.2777 215.286 74.2777C211.357 74.2777 208.218 73.0186 205.867 70.5003C203.534 67.9821 202.367 64.5572 202.367 60.2258V59.8984ZM209.645 60.4273C209.645 63.0127 210.132 64.9937 211.105 66.3704C212.079 67.7302 213.472 68.4102 215.286 68.4102C217.048 68.4102 218.425 67.7386 219.416 66.3955C220.406 65.0357 220.901 62.87 220.901 59.8984C220.901 57.3634 220.406 55.3991 219.416 54.0057C218.425 52.6123 217.032 51.9156 215.235 51.9156C213.456 51.9156 212.079 52.6123 211.105 54.0057C210.132 55.3824 209.645 57.5229 209.645 60.4273ZM231.528 59.8984C231.528 57.1955 232.049 54.7864 233.09 52.671C234.131 50.5557 235.625 48.9188 237.572 47.7604C239.536 46.602 241.811 46.0228 244.397 46.0228C248.073 46.0228 251.07 47.1476 253.387 49.3973C255.72 51.6469 257.022 54.7024 257.29 58.5638L257.341 60.4273C257.341 64.6076 256.174 67.9653 253.84 70.5003C251.507 73.0186 248.376 74.2777 244.447 74.2777C240.519 74.2777 237.379 73.0186 235.029 70.5003C232.695 67.9821 231.528 64.5572 231.528 60.2258V59.8984ZM238.806 60.4273C238.806 63.0127 239.293 64.9937 240.267 66.3704C241.24 67.7302 242.634 68.4102 244.447 68.4102C246.21 68.4102 247.586 67.7386 248.577 66.3955C249.567 65.0357 250.063 62.87 250.063 59.8984C250.063 57.3634 249.567 55.3991 248.577 54.0057C247.586 52.6123 246.193 51.9156 244.397 51.9156C242.617 51.9156 241.24 52.6123 240.267 54.0057C239.293 55.3824 238.806 57.5229 238.806 60.4273ZM268.648 46.5265L268.874 49.5736C270.805 47.2064 273.415 46.0228 276.706 46.0228C280.215 46.0228 282.624 47.4079 283.933 50.178C285.847 47.4079 288.575 46.0228 292.118 46.0228C295.072 46.0228 297.272 46.8874 298.716 48.6166C300.159 50.329 300.881 52.9145 300.881 56.3729V73.774H293.578V56.3981C293.578 54.8535 293.276 53.7287 292.672 53.0236C292.067 52.3017 291.001 51.9407 289.474 51.9407C287.291 51.9407 285.78 52.9816 284.941 55.0634L284.966 73.774H277.688V56.4232C277.688 54.8451 277.377 53.7035 276.756 52.9984C276.135 52.2933 275.077 51.9407 273.583 51.9407C271.518 51.9407 270.024 52.7969 269.101 54.5094V73.774H261.823V46.5265H268.648ZM314.53 60.8554V73.774H306.975V37.1082H321.279C324.032 37.1082 326.45 37.6118 328.532 38.6191C330.63 39.6264 332.242 41.0619 333.367 42.9254C334.492 44.7721 335.054 46.879 335.054 49.2462C335.054 52.8389 333.82 55.6762 331.352 57.7579C328.901 59.8229 325.501 60.8554 321.153 60.8554H314.53ZM314.53 54.736H321.279C323.277 54.736 324.796 54.2659 325.837 53.3258C326.895 52.3856 327.424 51.0426 327.424 49.2966C327.424 47.5002 326.895 46.048 325.837 44.94C324.78 43.8319 323.319 43.2611 321.455 43.2276H314.53V54.736ZM368.018 37.1082V61.2583C368.018 65.2707 366.759 68.4437 364.241 70.7773C361.739 73.1109 358.314 74.2777 353.966 74.2777C349.685 74.2777 346.285 73.1445 343.767 70.878C341.249 68.6116 339.965 65.4974 339.914 61.5353V37.1082H347.469V61.3087C347.469 63.7094 348.04 65.4638 349.181 66.5718C350.34 67.6631 351.935 68.2087 353.966 68.2087C358.214 68.2087 360.371 65.9758 360.438 61.5101V37.1082H368.018ZM374.213 73.774V37.1082H387.056C391.505 37.1082 394.879 37.9644 397.179 39.6768C399.479 41.3724 400.629 43.8655 400.629 47.156C400.629 48.9524 400.168 50.5389 399.244 51.9156C398.321 53.2754 397.037 54.2743 395.392 54.9123C397.272 55.3824 398.749 56.3309 399.824 57.7579C400.915 59.1849 401.461 60.9309 401.461 62.9959C401.461 66.5215 400.336 69.1908 398.086 71.004C395.836 72.8171 392.63 73.7405 388.466 73.774H374.213ZM381.768 57.8083V67.705H388.24C390.019 67.705 391.404 67.2853 392.395 66.4459C393.402 65.5897 393.906 64.4145 393.906 62.9203C393.906 59.5627 392.168 57.8586 388.693 57.8083H381.768ZM381.768 52.4696H387.358C391.169 52.4024 393.075 50.8831 393.075 47.9115C393.075 46.2495 392.588 45.0575 391.614 44.3356C390.657 43.5969 389.138 43.2276 387.056 43.2276H381.768V52.4696ZM433.543 64.6831L441.853 37.1082H450.264L437.497 73.774H429.615L416.897 37.1082H425.283L433.543 64.6831ZM460.942 73.774H453.639V46.5265H460.942V73.774ZM453.211 39.4754C453.211 38.3841 453.572 37.4859 454.294 36.7808C455.032 36.0757 456.031 35.7231 457.29 35.7231C458.533 35.7231 459.523 36.0757 460.262 36.7808C461.001 37.4859 461.37 38.3841 461.37 39.4754C461.37 40.5834 460.992 41.49 460.237 42.1951C459.498 42.9002 458.516 43.2527 457.29 43.2527C456.065 43.2527 455.074 42.9002 454.319 42.1951C453.58 41.49 453.211 40.5834 453.211 39.4754ZM479.501 74.2777C475.506 74.2777 472.249 73.0521 469.731 70.601C467.229 68.1499 465.978 64.8846 465.978 60.805V60.0999C465.978 57.3634 466.507 54.9207 467.565 52.7718C468.623 50.6061 470.117 48.944 472.047 47.7856C473.995 46.6104 476.211 46.0228 478.696 46.0228C482.423 46.0228 485.352 47.198 487.484 49.5484C489.633 51.8988 490.708 55.2313 490.708 59.5459V62.5174H473.357C473.592 64.297 474.297 65.724 475.472 66.7985C476.664 67.8729 478.167 68.4102 479.98 68.4102C482.784 68.4102 484.974 67.3945 486.553 65.3631L490.128 69.3671C489.037 70.9116 487.56 72.1204 485.696 72.9934C483.833 73.8496 481.768 74.2777 479.501 74.2777ZM478.67 51.9156C477.227 51.9156 476.051 52.4024 475.145 53.3761C474.255 54.3499 473.684 55.7433 473.432 57.5565H483.556V56.9773C483.522 55.3656 483.086 54.1232 482.246 53.2502C481.407 52.3604 480.215 51.9156 478.67 51.9156ZM518.56 63.8773L522.136 46.5265H529.161L522.211 73.774H516.117L510.954 56.6247L505.792 73.774H499.723L492.773 46.5265H499.799L503.349 63.8521L508.335 46.5265H513.599L518.56 63.8773ZM545.329 74.2777C541.333 74.2777 538.076 73.0521 535.558 70.601C533.056 68.1499 531.806 64.8846 531.806 60.805V60.0999C531.806 57.3634 532.334 54.9207 533.392 52.7718C534.45 50.6061 535.944 48.944 537.875 47.7856C539.822 46.6104 542.038 46.0228 544.523 46.0228C548.25 46.0228 551.179 47.198 553.312 49.5484C555.46 51.8988 556.535 55.2313 556.535 59.5459V62.5174H539.184C539.419 64.297 540.124 65.724 541.299 66.7985C542.491 67.8729 543.994 68.4102 545.807 68.4102C548.611 68.4102 550.802 67.3945 552.38 65.3631L555.956 69.3671C554.865 70.9116 553.387 72.1204 551.524 72.9934C549.66 73.8496 547.595 74.2777 545.329 74.2777ZM544.498 51.9156C543.054 51.9156 541.879 52.4024 540.972 53.3761C540.082 54.3499 539.512 55.7433 539.26 57.5565H549.383V56.9773C549.35 55.3656 548.913 54.1232 548.074 53.2502C547.234 52.3604 546.042 51.9156 544.498 51.9156ZM576.001 53.351C575.011 53.2167 574.138 53.1495 573.382 53.1495C570.629 53.1495 568.824 54.0813 567.968 55.9448V73.774H560.69V46.5265H567.565L567.766 49.775C569.227 47.2736 571.25 46.0228 573.835 46.0228C574.641 46.0228 575.397 46.132 576.102 46.3502L576.001 53.351Z" fill="#D65649"/>
<path fill-rule="evenodd" clip-rule="evenodd" d="M36.6032 23.5966C37.8729 22.7282 39.4379 22.4055 40.9476 22.7009C47.6451 24.0111 57.0043 27.5952 62.1122 31.2663C62.1437 31.289 62.1751 31.312 62.2062 31.3354C62.3779 31.4641 62.5602 31.5992 62.7519 31.7412C65.1282 33.501 68.9527 36.3334 71.9633 41.6359C75.2002 47.337 77.2357 55.3325 77.0238 67.2025L65.5406 66.9975C65.7282 56.4884 63.9007 50.6969 61.9757 47.3065C60.1908 44.1627 58.1011 42.6032 55.7958 40.8828C55.6535 40.7766 55.5104 40.6698 55.3665 40.5619C53.051 38.9113 48.8252 36.9865 44.6219 35.5747C43.5655 45.9032 44.4404 56.408 47.5526 64.486C49.4039 69.2913 51.9341 72.9556 55.0276 75.3457C58.0318 77.6669 61.8984 79.0508 67.0519 78.8136C73.7512 78.5055 78.1343 77.0284 81.0857 75.016C83.9635 73.0539 85.9758 70.2464 87.3475 66.2886C88.758 62.2193 89.4394 57.0681 89.6096 50.7273C89.7341 46.0886 89.5833 41.0131 89.3183 35.4945C85.1319 36.2268 82.2603 37.1776 80.408 37.966C79.0959 38.5245 78.2852 39.0057 77.8711 39.2798C77.6883 39.4007 77.5808 39.4827 77.5398 39.515C77.3743 39.6652 77.2002 39.8057 77.0182 39.9357L76.0858 40.6019L69.409 31.257L70.1089 30.7569C70.1733 30.7025 70.2435 30.6445 70.3195 30.5832C70.6258 30.3363 71.0262 30.0373 71.5325 29.7023C72.5462 29.0313 73.9751 28.222 75.9099 27.3984C79.781 25.7507 85.6379 24.0624 94.2069 23.2835C95.7581 23.1425 97.3001 23.6378 98.4792 24.6556C99.6582 25.6735 100.373 27.1266 100.46 28.6818C100.903 36.5966 101.275 44.1759 101.091 51.0355C100.907 57.8731 100.168 64.37 98.1993 70.0499C96.1919 75.8413 92.8664 80.8843 87.5557 84.5053C82.3186 88.076 75.6624 89.9148 67.5797 90.2866C67.5797 90.2866 67.5798 90.2866 67.5797 90.2866C59.8675 90.6415 53.2884 88.5157 48.0056 84.4341C42.8122 80.4215 39.2144 74.79 36.8354 68.615C32.1162 56.3657 31.7545 40.8856 34.1931 27.3205C34.4653 25.8065 35.3335 24.465 36.6032 23.5966Z" fill="#D65649"/>
<path fill-rule="evenodd" clip-rule="evenodd" d="M124.802 14.4579H11.8926C10.8987 14.4579 10.093 15.2636 10.093 16.2575V95.5566C10.093 96.5505 10.8987 97.3562 11.8926 97.3562H124.802C125.796 97.3562 126.601 96.5505 126.601 95.5567V16.2575C126.601 15.2636 125.796 14.4579 124.802 14.4579ZM11.8926 4.86023C5.59806 4.86023 0.495323 9.96297 0.495323 16.2575V95.5566C0.495323 101.851 5.59807 106.954 11.8926 106.954H124.802C131.096 106.954 136.199 101.851 136.199 95.5567V16.2575C136.199 9.96297 131.096 4.86023 124.802 4.86023H11.8926Z" fill="#D65649"/>
<path fill-rule="evenodd" clip-rule="evenodd" d="M54.3807 100.115C55.3413 99.1219 56.6636 98.5614 58.045 98.5614H78.2812C81.0972 98.5614 83.38 100.844 83.38 103.66V118.362H97.4295C100.245 118.362 102.528 120.645 102.528 123.461C102.528 126.277 100.245 128.56 97.4295 128.56H38.4616C35.6456 128.56 33.3628 126.277 33.3628 123.461C33.3628 120.645 35.6456 118.362 38.4616 118.362H53.4281L52.949 103.828C52.9034 102.448 53.4201 101.107 54.3807 100.115ZM63.6312 118.362H73.1825V108.759H63.3146L63.6312 118.362Z" fill="#D65649"/>
</svg>
